<svg xmlns="http://www.w3.org/2000/svg" version="1.1" xmlns:xlink="http://www.w3.org/1999/xlink" width="512" height="512" x="0" y="0" viewBox="0 0 512 512" style="enable-background:new 0 0 512 512" xml:space="preserve" class=""><g><path d="M227.37 48.744c-5.827 0-10.952-3.908-12.428-9.544-4.223-16.118-18.888-28.01-36.331-28.01S146.503 23.082 142.28 39.2c-1.477 5.636-6.602 9.544-12.428 9.544h-39.74v45.208H267.11V48.744h-39.74zM281.515 291.575l23.241 23.241 46.482-46.482" style="stroke-width:20;stroke-linecap:round;stroke-linejoin:round;stroke-miterlimit:10;" fill="none" stroke="#ffffff" stroke-width="20" stroke-linecap="round" stroke-linejoin="round" stroke-miterlimit="10" data-original="#000000" opacity="1" class=""></path><path d="M373.821 232.427c17.943 17.943 25.563 42.303 22.849 65.695-1.999 17.249-9.614 33.968-22.849 47.203s-29.954 20.849-47.203 22.849c-23.392 2.714-47.752-4.905-65.695-22.849-31.178-31.178-31.178-81.72 0-112.898s81.72-31.178 112.898 0z" style="stroke-width:20;stroke-linecap:round;stroke-linejoin:round;stroke-miterlimit:10;" fill="none" stroke="#ffffff" stroke-width="20" stroke-linecap="round" stroke-linejoin="round" stroke-miterlimit="10" data-original="#000000" opacity="1" class=""></path><path d="m417.41 359.98-28.94 28.95-31-31c5.84-3.39 11.34-7.6 16.35-12.6a79.466 79.466 0 0 0 12.6-16.36l30.99 31.01z" style="stroke-width:20;stroke-linecap:round;stroke-linejoin:round;stroke-miterlimit:10;" fill="none" stroke="#ffffff" stroke-width="20" stroke-linecap="round" stroke-linejoin="round" stroke-miterlimit="10" data-original="#000000" opacity="1" class=""></path><path d="m417.932 359.455-29.981 29.981 8.352 14.708a107.71 107.71 0 0 0 17.499 22.976l37.724 37.724c11.546 11.547 30.267 11.547 41.814 0h0c11.547-11.547 11.547-30.267 0-41.814l-37.724-37.724a107.703 107.703 0 0 0-22.975-17.499l-14.709-8.352zM178.612 46.5h0M110.762 93.952v19.867c0 12.812 10.386 23.198 23.198 23.198h89.304c12.812 0 23.198-10.386 23.198-23.198V93.952h-135.7" style="stroke-width:20;stroke-linecap:round;stroke-linejoin:round;stroke-miterlimit:10;" fill="none" stroke="#ffffff" stroke-width="20" stroke-linecap="round" stroke-linejoin="round" stroke-miterlimit="10" data-original="#000000" opacity="1" class=""></path><path d="M260.921 232.425c-31.179 31.179-31.179 81.723 0 112.901 11.862 11.862 26.541 19.217 41.887 22.043a79.965 79.965 0 0 0 23.814.806 79.446 79.446 0 0 0 20.6-5.235v109.11c0 15.883-12.877 28.76-28.76 28.76H38.77c-15.883 0-28.77-12.877-28.77-28.76V77.507c0-15.883 12.887-28.76 28.77-28.76h51.35v45.21h176.99v-45.21h51.351c15.883 0 28.76 12.877 28.76 28.76V214.81c-14.141-5.692-29.586-7.175-44.414-4.438-15.345 2.826-30.024 10.18-41.886 22.053z" style="stroke-width:20;stroke-linecap:round;stroke-linejoin:round;stroke-miterlimit:10;" fill="none" stroke="#ffffff" stroke-width="20" stroke-linecap="round" stroke-linejoin="round" stroke-miterlimit="10" data-original="#000000" opacity="1" class=""></path><path d="M53.578 334.524v123.773h249.229v-90.928c-15.345-2.826-30.024-10.181-41.887-22.043-31.179-31.179-31.179-81.723 0-112.901 11.862-11.872 26.541-19.227 41.887-22.053V93.947H53.578V246.96" style="stroke-width:20;stroke-linecap:round;stroke-linejoin:round;stroke-miterlimit:10;" fill="none" stroke="#ffffff" stroke-width="20" stroke-linecap="round" stroke-linejoin="round" stroke-miterlimit="10" data-original="#000000" opacity="1" class=""></path><path d="M97.103 362.992H141.4v46.287H97.103zM97.103 271.243H141.4v46.287H97.103zM97.103 179.493H141.4v46.287H97.103zM181.359 386.136h67.244M181.359 294.386h19.008M181.359 202.637h56.297M53.578 291.575h0" style="stroke-width:20;stroke-linecap:round;stroke-linejoin:round;stroke-miterlimit:10;" fill="none" stroke="#ffffff" stroke-width="20" stroke-linecap="round" stroke-linejoin="round" stroke-miterlimit="10" data-original="#000000" opacity="1" class=""></path></g></svg>