<svg xmlns="http://www.w3.org/2000/svg" version="1.1" xmlns:xlink="http://www.w3.org/1999/xlink" width="512" height="512" x="0" y="0" viewBox="0 0 512 512" style="enable-background:new 0 0 512 512" xml:space="preserve" class=""><g><path fill-rule="evenodd" d="M281.19 76.78c-14.51 0-26.32 11.81-26.32 26.32s11.81 26.32 26.32 26.32c14.52 0 26.32-11.8 26.32-26.32s-11.8-26.32-26.32-26.32zM154.37 490.94h253.65c0-13.2-4.83-56.93-66.99-65.3L331 424.29c-13.15-1.77-22.7-12.69-22.7-25.97v-19.14a78.305 78.305 0 0 1-25.91 4.4h-2.4c-9.07 0-17.79-1.56-25.91-4.4v19.14c0 13.27-9.54 24.19-22.7 25.97l-10.03 1.35c-62.15 8.38-66.98 52.1-66.98 65.3zm297.19-193.57c2.64 0 4.97 1.72 5.74 4.24l3.27 10.64c3.22 10.49 10.77 18.04 21.26 21.27l10.64 3.27c2.52.77 4.24 3.1 4.24 5.73 0 2.64-1.72 4.96-4.24 5.73l-10.64 3.27c-10.49 3.22-18.04 10.77-21.26 21.26l-3.27 10.64a5.998 5.998 0 0 1-11.47 0l-3.27-10.64c-3.22-10.49-10.77-18.04-21.26-21.26l-10.64-3.27a5.995 5.995 0 0 1-4.24-5.73c0-2.64 1.72-4.96 4.24-5.73l10.64-3.27c10.49-3.22 18.04-10.77 21.26-21.27l3.27-10.64c.77-2.52 3.1-4.24 5.73-4.24zm-40.9-230.81 10.64 3.27c10.49 3.22 18.04 10.78 21.26 21.27l3.27 10.64a5.998 5.998 0 0 0 11.47 0l3.27-10.64c3.22-10.49 10.77-18.04 21.26-21.27l10.64-3.27c2.52-.77 4.24-3.1 4.24-5.73 0-2.64-1.72-4.96-4.24-5.74l-10.64-3.26c-10.49-3.22-18.04-10.78-21.26-21.27l-3.27-10.64a6.03 6.03 0 0 0-4.58-4.13h-2.33a5.999 5.999 0 0 0-4.57 4.13l-3.27 10.64c-3.22 10.49-10.77 18.04-21.26 21.27l-10.64 3.26c-2.52.78-4.24 3.1-4.24 5.74a6.026 6.026 0 0 0 4.25 5.73zM68.86 223.17c3.22-10.49 10.77-18.04 21.26-21.27l10.64-3.27c2.52-.77 4.24-3.1 4.24-5.73 0-2.64-1.72-4.96-4.24-5.73l-10.64-3.27c-10.49-3.22-18.04-10.78-21.26-21.27L65.59 152a5.998 5.998 0 0 0-11.47 0l-3.27 10.64c-3.22 10.49-10.77 18.04-21.26 21.27l-10.64 3.27c-2.52.77-4.24 3.1-4.24 5.73 0 2.64 1.72 4.96 4.24 5.73l10.64 3.27c10.49 3.22 18.04 10.77 21.26 21.27l3.27 10.64a5.998 5.998 0 0 0 11.47 0zm86.64 157.02 7.69 2.36c2.52.78 4.24 3.1 4.24 5.74s-1.72 4.96-4.24 5.73l-7.69 2.37c-7.15 2.19-12.09 7.13-14.28 14.28l-2.37 7.69a5.998 5.998 0 0 1-11.47 0l-2.36-7.69c-2.2-7.15-7.14-12.09-14.29-14.28l-7.69-2.37a5.995 5.995 0 0 1-4.24-5.73c0-2.64 1.72-4.96 4.24-5.74l7.69-2.36c7.15-2.2 12.09-7.13 14.29-14.28l2.36-7.7a5.998 5.998 0 0 1 11.47 0l2.37 7.7c2.19 7.14 7.13 12.08 14.28 14.28zm45.77-75.33v-37.44h-1.3c-11.67 0-21.17 9.49-21.17 21.16s9.5 21.17 21.17 21.17h1.47c-.1-1.62-.17-3.25-.17-4.89zm159.85-37.44v37.44c0 1.65-.07 3.28-.17 4.9h1.47c11.67 0 21.16-9.5 21.16-21.17s-9.49-21.16-21.16-21.16h-1.3zm-12-1.23c-20.52-5.77-43.32-25.29-67.93-58.15-24.6 32.86-47.4 52.38-67.92 58.15v38.66c0 26.27 15.26 49.03 37.38 59.91.13.06.26.13.39.2a66.268 66.268 0 0 0 28.95 6.62h2.4c10.37 0 20.2-2.38 28.96-6.62.12-.07.25-.13.38-.19 22.12-10.88 37.39-33.64 37.39-59.92zM367.09 227v28.76c-1.53-.22-3.09-.34-4.67-.34h-6.72c-19.54-3.68-43.61-24.76-69.63-61.03a6.004 6.004 0 0 0-9.75 0c-26.03 36.27-50.09 57.35-69.64 61.03h-6.71c-1.59 0-3.15.12-4.68.34V227c0-47.19 38.39-85.58 85.58-85.58h.64c47.19 0 85.58 38.39 85.58 85.58z" clip-rule="evenodd" fill="#ffffff" opacity="1" data-original="#000000" class=""></path></g></svg>