<svg width="440" height="956" viewBox="0 0 440 956" fill="none" xmlns="http://www.w3.org/2000/svg">
<mask id="mask0_1_225" style="mask-type:luminance" maskUnits="userSpaceOnUse" x="0" y="0" width="440" height="956">
<path d="M440 0H0V956H440V0Z" fill="white"/>
</mask>
<g mask="url(#mask0_1_225)">
<path d="M440 0H0V956H440V0Z" fill="#8EC7D2"/>
<path d="M27 30C27 30.7956 27.3161 31.5587 27.8787 32.1213C28.4413 32.6839 29.2044 33 30 33C30.7956 33 31.5587 32.6839 32.1213 32.1213C32.6839 31.5587 33 30.7956 33 30C33 29.2044 32.6839 28.4413 32.1213 27.8787C31.5587 27.3161 30.7956 27 30 27C29.2044 27 28.4413 27.3161 27.8787 27.8787C27.3161 28.4413 27 29.2044 27 30V30Z" stroke="#0D6986"/>
<path d="M29 90C29 90.2652 29.1054 90.5196 29.2929 90.7071C29.4804 90.8946 29.7348 91 30 91C30.2652 91 30.5196 90.8946 30.7071 90.7071C30.8946 90.5196 31 90.2652 31 90C31 89.7348 30.8946 89.4804 30.7071 89.2929C30.5196 89.1054 30.2652 89 30 89C29.7348 89 29.4804 89.1054 29.2929 89.2929C29.1054 89.4804 29 89.7348 29 90V90Z" stroke="#0D6986"/>
<path d="M36 144L24 156L36 144Z" stroke="#0D6986"/>
<path d="M36 204L24 216L36 204Z" stroke="#0D6986"/>
<path d="M29 270C29 270.265 29.1054 270.52 29.2929 270.707C29.4804 270.895 29.7348 271 30 271C30.2652 271 30.5196 270.895 30.7071 270.707C30.8946 270.52 31 270.265 31 270C31 269.735 30.8946 269.48 30.7071 269.293C30.5196 269.105 30.2652 269 30 269C29.7348 269 29.4804 269.105 29.2929 269.293C29.1054 269.48 29 269.735 29 270V270Z" stroke="#0D6986"/>
<path d="M36 324L24 336L36 324Z" stroke="#0D6986"/>
<path d="M25 390C25 391.326 25.5268 392.598 26.4645 393.536C27.4021 394.473 28.6739 395 30 395C31.3261 395 32.5979 394.473 33.5355 393.536C34.4732 392.598 35 391.326 35 390C35 388.674 34.4732 387.402 33.5355 386.464C32.5979 385.527 31.3261 385 30 385C28.6739 385 27.4021 385.527 26.4645 386.464C25.5268 387.402 25 388.674 25 390V390Z" stroke="#0D6986"/>
<path d="M32 448L28 452L32 448Z" stroke="#0D6986"/>
<path d="M25 510C25 511.326 25.5268 512.598 26.4645 513.536C27.4021 514.473 28.6739 515 30 515C31.3261 515 32.5979 514.473 33.5355 513.536C34.4732 512.598 35 511.326 35 510C35 508.674 34.4732 507.402 33.5355 506.464C32.5979 505.527 31.3261 505 30 505C28.6739 505 27.4021 505.527 26.4645 506.464C25.5268 507.402 25 508.674 25 510V510Z" stroke="#0D6986"/>
<path d="M32 568L28 572L32 568Z" stroke="#0D6986"/>
<path d="M27 630C27 630.796 27.3161 631.559 27.8787 632.121C28.4413 632.684 29.2044 633 30 633C30.7956 633 31.5587 632.684 32.1213 632.121C32.6839 631.559 33 630.796 33 630C33 629.204 32.6839 628.441 32.1213 627.879C31.5587 627.316 30.7956 627 30 627C29.2044 627 28.4413 627.316 27.8787 627.879C27.3161 628.441 27 629.204 27 630V630Z" stroke="#0D6986"/>
<path d="M29 690C29 690.265 29.1054 690.52 29.2929 690.707C29.4804 690.895 29.7348 691 30 691C30.2652 691 30.5196 690.895 30.7071 690.707C30.8946 690.52 31 690.265 31 690C31 689.735 30.8946 689.48 30.7071 689.293C30.5196 689.105 30.2652 689 30 689C29.7348 689 29.4804 689.105 29.2929 689.293C29.1054 689.48 29 689.735 29 690V690Z" stroke="#0D6986"/>
<path d="M92 28L88 32L92 28Z" stroke="#0D6986"/>
<path d="M96 84L84 96L96 84Z" stroke="#0D6986"/>
<path d="M120 120L60 180L120 120Z" stroke="#0D6986" stroke-width="3"/>
<path d="M96 204L84 216L96 204Z" stroke="#0D6986"/>
<path d="M85 270C85 271.326 85.5268 272.598 86.4645 273.536C87.4021 274.473 88.6739 275 90 275C91.3261 275 92.5979 274.473 93.5355 273.536C94.4732 272.598 95 271.326 95 270C95 268.674 94.4732 267.402 93.5355 266.464C92.5979 265.527 91.3261 265 90 265C88.6739 265 87.4021 265.527 86.4645 266.464C85.5268 267.402 85 268.674 85 270V270Z" stroke="#0D6986"/>
<path d="M85 330C85 331.326 85.5268 332.598 86.4645 333.536C87.4021 334.473 88.6739 335 90 335C91.3261 335 92.5979 334.473 93.5355 333.536C94.4732 332.598 95 331.326 95 330C95 328.674 94.4732 327.402 93.5355 326.464C92.5979 325.527 91.3261 325 90 325C88.6739 325 87.4021 325.527 86.4645 326.464C85.5268 327.402 85 328.674 85 330V330Z" stroke="#0D6986"/>
<path d="M92 388L88 392L92 388Z" stroke="#0D6986"/>
<path d="M85 450C85 451.326 85.5268 452.598 86.4645 453.536C87.4021 454.473 88.6739 455 90 455C91.3261 455 92.5979 454.473 93.5355 453.536C94.4732 452.598 95 451.326 95 450C95 448.674 94.4732 447.402 93.5355 446.464C92.5979 445.527 91.3261 445 90 445C88.6739 445 87.4021 445.527 86.4645 446.464C85.5268 447.402 85 448.674 85 450V450Z" stroke="#0D6986"/>
<path d="M87 510C87 510.796 87.3161 511.559 87.8787 512.121C88.4413 512.684 89.2044 513 90 513C90.7956 513 91.5587 512.684 92.1213 512.121C92.6839 511.559 93 510.796 93 510C93 509.204 92.6839 508.441 92.1213 507.879C91.5587 507.316 90.7956 507 90 507C89.2044 507 88.4413 507.316 87.8787 507.879C87.3161 508.441 87 509.204 87 510V510Z" stroke="#0D6986"/>
<path d="M92 568L88 572L92 568Z" stroke="#0D6986"/>
<path d="M96 624L84 636L96 624Z" stroke="#0D6986"/>
<path d="M87 690C87 690.796 87.3161 691.559 87.8787 692.121C88.4413 692.684 89.2044 693 90 693C90.7956 693 91.5587 692.684 92.1213 692.121C92.6839 691.559 93 690.796 93 690C93 689.204 92.6839 688.441 92.1213 687.879C91.5587 687.316 90.7956 687 90 687C89.2044 687 88.4413 687.316 87.8787 687.879C87.3161 688.441 87 689.204 87 690V690Z" stroke="#0D6986"/>
<path d="M147 30C147 30.7956 147.316 31.5587 147.879 32.1213C148.441 32.6839 149.204 33 150 33C150.796 33 151.559 32.6839 152.121 32.1213C152.684 31.5587 153 30.7956 153 30C153 29.2044 152.684 28.4413 152.121 27.8787C151.559 27.3161 150.796 27 150 27C149.204 27 148.441 27.3161 147.879 27.8787C147.316 28.4413 147 29.2044 147 30V30Z" stroke="#0D6986"/>
<path d="M149 90C149 90.2652 149.105 90.5196 149.293 90.7071C149.48 90.8946 149.735 91 150 91C150.265 91 150.52 90.8946 150.707 90.7071C150.895 90.5196 151 90.2652 151 90C151 89.7348 150.895 89.4804 150.707 89.2929C150.52 89.1054 150.265 89 150 89C149.735 89 149.48 89.1054 149.293 89.2929C149.105 89.4804 149 89.7348 149 90V90Z" stroke="#0D6986"/>
<path d="M156 144L144 156L156 144Z" stroke="#0D6986"/>
<path d="M149 210C149 210.265 149.105 210.52 149.293 210.707C149.48 210.895 149.735 211 150 211C150.265 211 150.52 210.895 150.707 210.707C150.895 210.52 151 210.265 151 210C151 209.735 150.895 209.48 150.707 209.293C150.52 209.105 150.265 209 150 209C149.735 209 149.48 209.105 149.293 209.293C149.105 209.48 149 209.735 149 210V210Z" stroke="#0D6986"/>
<path d="M149 270C149 270.265 149.105 270.52 149.293 270.707C149.48 270.895 149.735 271 150 271C150.265 271 150.52 270.895 150.707 270.707C150.895 270.52 151 270.265 151 270C151 269.735 150.895 269.48 150.707 269.293C150.52 269.105 150.265 269 150 269C149.735 269 149.48 269.105 149.293 269.293C149.105 269.48 149 269.735 149 270V270Z" stroke="#0D6986"/>
<path d="M156 324L144 336L156 324Z" stroke="#0D6986"/>
<path d="M145 390C145 391.326 145.527 392.598 146.464 393.536C147.402 394.473 148.674 395 150 395C151.326 395 152.598 394.473 153.536 393.536C154.473 392.598 155 391.326 155 390C155 388.674 154.473 387.402 153.536 386.464C152.598 385.527 151.326 385 150 385C148.674 385 147.402 385.527 146.464 386.464C145.527 387.402 145 388.674 145 390V390Z" stroke="#0D6986"/>
<path d="M145 450C145 451.326 145.527 452.598 146.464 453.536C147.402 454.473 148.674 455 150 455C151.326 455 152.598 454.473 153.536 453.536C154.473 452.598 155 451.326 155 450C155 448.674 154.473 447.402 153.536 446.464C152.598 445.527 151.326 445 150 445C148.674 445 147.402 445.527 146.464 446.464C145.527 447.402 145 448.674 145 450V450Z" stroke="#0D6986"/>
<path d="M156 504L144 516L156 504Z" stroke="#0D6986"/>
<path d="M156 564L144 576L156 564Z" stroke="#0D6986"/>
<path d="M145 630C145 631.326 145.527 632.598 146.464 633.536C147.402 634.473 148.674 635 150 635C151.326 635 152.598 634.473 153.536 633.536C154.473 632.598 155 631.326 155 630C155 628.674 154.473 627.402 153.536 626.464C152.598 625.527 151.326 625 150 625C148.674 625 147.402 625.527 146.464 626.464C145.527 627.402 145 628.674 145 630V630Z" stroke="#0D6986"/>
<path d="M156 684L144 696L156 684Z" stroke="#0D6986"/>
<path d="M207 30C207 30.7956 207.316 31.5587 207.879 32.1213C208.441 32.6839 209.204 33 210 33C210.796 33 211.559 32.6839 212.121 32.1213C212.684 31.5587 213 30.7956 213 30C213 29.2044 212.684 28.4413 212.121 27.8787C211.559 27.3161 210.796 27 210 27C209.204 27 208.441 27.3161 207.879 27.8787C207.316 28.4413 207 29.2044 207 30V30Z" stroke="#0D6986"/>
<path d="M207 90C207 90.7956 207.316 91.5587 207.879 92.1213C208.441 92.6839 209.204 93 210 93C210.796 93 211.559 92.6839 212.121 92.1213C212.684 91.5587 213 90.7956 213 90C213 89.2044 212.684 88.4413 212.121 87.8787C211.559 87.3161 210.796 87 210 87C209.204 87 208.441 87.3161 207.879 87.8787C207.316 88.4413 207 89.2044 207 90V90Z" stroke="#0D6986"/>
<path d="M216 144L204 156L216 144Z" stroke="#0D6986"/>
<path d="M205 210C205 211.326 205.527 212.598 206.464 213.536C207.402 214.473 208.674 215 210 215C211.326 215 212.598 214.473 213.536 213.536C214.473 212.598 215 211.326 215 210C215 208.674 214.473 207.402 213.536 206.464C212.598 205.527 211.326 205 210 205C208.674 205 207.402 205.527 206.464 206.464C205.527 207.402 205 208.674 205 210V210Z" stroke="#0D6986"/>
<path d="M205 270C205 271.326 205.527 272.598 206.464 273.536C207.402 274.473 208.674 275 210 275C211.326 275 212.598 274.473 213.536 273.536C214.473 272.598 215 271.326 215 270C215 268.674 214.473 267.402 213.536 266.464C212.598 265.527 211.326 265 210 265C208.674 265 207.402 265.527 206.464 266.464C205.527 267.402 205 268.674 205 270V270Z" stroke="#0D6986"/>
<path d="M205 330C205 331.326 205.527 332.598 206.464 333.536C207.402 334.473 208.674 335 210 335C211.326 335 212.598 334.473 213.536 333.536C214.473 332.598 215 331.326 215 330C215 328.674 214.473 327.402 213.536 326.464C212.598 325.527 211.326 325 210 325C208.674 325 207.402 325.527 206.464 326.464C205.527 327.402 205 328.674 205 330V330Z" stroke="#0D6986"/>
<path d="M205 390C205 391.326 205.527 392.598 206.464 393.536C207.402 394.473 208.674 395 210 395C211.326 395 212.598 394.473 213.536 393.536C214.473 392.598 215 391.326 215 390C215 388.674 214.473 387.402 213.536 386.464C212.598 385.527 211.326 385 210 385C208.674 385 207.402 385.527 206.464 386.464C205.527 387.402 205 388.674 205 390V390Z" stroke="#0D6986"/>
<path d="M205 450C205 451.326 205.527 452.598 206.464 453.536C207.402 454.473 208.674 455 210 455C211.326 455 212.598 454.473 213.536 453.536C214.473 452.598 215 451.326 215 450C215 448.674 214.473 447.402 213.536 446.464C212.598 445.527 211.326 445 210 445C208.674 445 207.402 445.527 206.464 446.464C205.527 447.402 205 448.674 205 450V450Z" stroke="#0D6986"/>
<path d="M212 508L208 512L212 508Z" stroke="#0D6986"/>
<path d="M207 570C207 570.796 207.316 571.559 207.879 572.121C208.441 572.684 209.204 573 210 573C210.796 573 211.559 572.684 212.121 572.121C212.684 571.559 213 570.796 213 570C213 569.204 212.684 568.441 212.121 567.879C211.559 567.316 210.796 567 210 567C209.204 567 208.441 567.316 207.879 567.879C207.316 568.441 207 569.204 207 570V570Z" stroke="#0D6986"/>
<path d="M207 630C207 630.796 207.316 631.559 207.879 632.121C208.441 632.684 209.204 633 210 633C210.796 633 211.559 632.684 212.121 632.121C212.684 631.559 213 630.796 213 630C213 629.204 212.684 628.441 212.121 627.879C211.559 627.316 210.796 627 210 627C209.204 627 208.441 627.316 207.879 627.879C207.316 628.441 207 629.204 207 630V630Z" stroke="#0D6986"/>
<path d="M205 690C205 691.326 205.527 692.598 206.464 693.536C207.402 694.473 208.674 695 210 695C211.326 695 212.598 694.473 213.536 693.536C214.473 692.598 215 691.326 215 690C215 688.674 214.473 687.402 213.536 686.464C212.598 685.527 211.326 685 210 685C208.674 685 207.402 685.527 206.464 686.464C205.527 687.402 205 688.674 205 690V690Z" stroke="#0D6986"/>
<path d="M265 30C265 31.3261 265.527 32.5979 266.464 33.5355C267.402 34.4732 268.674 35 270 35C271.326 35 272.598 34.4732 273.536 33.5355C274.473 32.5979 275 31.3261 275 30C275 28.6739 274.473 27.4021 273.536 26.4645C272.598 25.5268 271.326 25 270 25C268.674 25 267.402 25.5268 266.464 26.4645C265.527 27.4021 265 28.6739 265 30V30Z" stroke="#0D6986"/>
<path d="M276 84L264 96L276 84Z" stroke="#0D6986"/>
<path d="M265 150C265 151.326 265.527 152.598 266.464 153.536C267.402 154.473 268.674 155 270 155C271.326 155 272.598 154.473 273.536 153.536C274.473 152.598 275 151.326 275 150C275 148.674 274.473 147.402 273.536 146.464C272.598 145.527 271.326 145 270 145C268.674 145 267.402 145.527 266.464 146.464C265.527 147.402 265 148.674 265 150V150Z" stroke="#0D6986"/>
<path d="M269 210C269 210.265 269.105 210.52 269.293 210.707C269.48 210.895 269.735 211 270 211C270.265 211 270.52 210.895 270.707 210.707C270.895 210.52 271 210.265 271 210C271 209.735 270.895 209.48 270.707 209.293C270.52 209.105 270.265 209 270 209C269.735 209 269.48 209.105 269.293 209.293C269.105 209.48 269 209.735 269 210V210Z" stroke="#0D6986"/>
<path d="M265 270C265 271.326 265.527 272.598 266.464 273.536C267.402 274.473 268.674 275 270 275C271.326 275 272.598 274.473 273.536 273.536C274.473 272.598 275 271.326 275 270C275 268.674 274.473 267.402 273.536 266.464C272.598 265.527 271.326 265 270 265C268.674 265 267.402 265.527 266.464 266.464C265.527 267.402 265 268.674 265 270V270Z" stroke="#0D6986"/>
<path d="M269 330C269 330.265 269.105 330.52 269.293 330.707C269.48 330.895 269.735 331 270 331C270.265 331 270.52 330.895 270.707 330.707C270.895 330.52 271 330.265 271 330C271 329.735 270.895 329.48 270.707 329.293C270.52 329.105 270.265 329 270 329C269.735 329 269.48 329.105 269.293 329.293C269.105 329.48 269 329.735 269 330V330Z" stroke="#0D6986"/>
<path d="M269 390C269 390.265 269.105 390.52 269.293 390.707C269.48 390.895 269.735 391 270 391C270.265 391 270.52 390.895 270.707 390.707C270.895 390.52 271 390.265 271 390C271 389.735 270.895 389.48 270.707 389.293C270.52 389.105 270.265 389 270 389C269.735 389 269.48 389.105 269.293 389.293C269.105 389.48 269 389.735 269 390V390Z" stroke="#0D6986"/>
<path d="M276 444L264 456L276 444Z" stroke="#0D6986"/>
<path d="M265 510C265 511.326 265.527 512.598 266.464 513.536C267.402 514.473 268.674 515 270 515C271.326 515 272.598 514.473 273.536 513.536C274.473 512.598 275 511.326 275 510C275 508.674 274.473 507.402 273.536 506.464C272.598 505.527 271.326 505 270 505C268.674 505 267.402 505.527 266.464 506.464C265.527 507.402 265 508.674 265 510V510Z" stroke="#0D6986"/>
<path d="M267 570C267 570.796 267.316 571.559 267.879 572.121C268.441 572.684 269.204 573 270 573C270.796 573 271.559 572.684 272.121 572.121C272.684 571.559 273 570.796 273 570C273 569.204 272.684 568.441 272.121 567.879C271.559 567.316 270.796 567 270 567C269.204 567 268.441 567.316 267.879 567.879C267.316 568.441 267 569.204 267 570V570Z" stroke="#0D6986"/>
<path d="M265 630C265 631.326 265.527 632.598 266.464 633.536C267.402 634.473 268.674 635 270 635C271.326 635 272.598 634.473 273.536 633.536C274.473 632.598 275 631.326 275 630C275 628.674 274.473 627.402 273.536 626.464C272.598 625.527 271.326 625 270 625C268.674 625 267.402 625.527 266.464 626.464C265.527 627.402 265 628.674 265 630V630Z" stroke="#0D6986"/>
<path d="M276 684L264 696L276 684Z" stroke="#0D6986"/>
<path d="M332 28L328 32L332 28Z" stroke="#0D6986"/>
<path d="M360 60L300 120L360 60Z" stroke="#0D6986" stroke-width="3"/>
<path d="M325 150C325 151.326 325.527 152.598 326.464 153.536C327.402 154.473 328.674 155 330 155C331.326 155 332.598 154.473 333.536 153.536C334.473 152.598 335 151.326 335 150C335 148.674 334.473 147.402 333.536 146.464C332.598 145.527 331.326 145 330 145C328.674 145 327.402 145.527 326.464 146.464C325.527 147.402 325 148.674 325 150V150Z" stroke="#0D6986"/>
<path d="M360 180L300 240L360 180Z" stroke="#0D6986" stroke-width="3"/>
<path d="M332 268L328 272L332 268Z" stroke="#0D6986"/>
<path d="M325 330C325 331.326 325.527 332.598 326.464 333.536C327.402 334.473 328.674 335 330 335C331.326 335 332.598 334.473 333.536 333.536C334.473 332.598 335 331.326 335 330C335 328.674 334.473 327.402 333.536 326.464C332.598 325.527 331.326 325 330 325C328.674 325 327.402 325.527 326.464 326.464C325.527 327.402 325 328.674 325 330V330Z" stroke="#0D6986"/>
<path d="M327 390C327 390.796 327.316 391.559 327.879 392.121C328.441 392.684 329.204 393 330 393C330.796 393 331.559 392.684 332.121 392.121C332.684 391.559 333 390.796 333 390C333 389.204 332.684 388.441 332.121 387.879C331.559 387.316 330.796 387 330 387C329.204 387 328.441 387.316 327.879 387.879C327.316 388.441 327 389.204 327 390V390Z" stroke="#0D6986"/>
<path d="M336 444L324 456L336 444Z" stroke="#0D6986"/>
<path d="M360 480L300 540L360 480Z" stroke="#0D6986" stroke-width="3"/>
<path d="M327 570C327 570.796 327.316 571.559 327.879 572.121C328.441 572.684 329.204 573 330 573C330.796 573 331.559 572.684 332.121 572.121C332.684 571.559 333 570.796 333 570C333 569.204 332.684 568.441 332.121 567.879C331.559 567.316 330.796 567 330 567C329.204 567 328.441 567.316 327.879 567.879C327.316 568.441 327 569.204 327 570V570Z" stroke="#0D6986"/>
<path d="M329 630C329 630.265 329.105 630.52 329.293 630.707C329.48 630.895 329.735 631 330 631C330.265 631 330.52 630.895 330.707 630.707C330.895 630.52 331 630.265 331 630C331 629.735 330.895 629.48 330.707 629.293C330.52 629.105 330.265 629 330 629C329.735 629 329.48 629.105 329.293 629.293C329.105 629.48 329 629.735 329 630V630Z" stroke="#0D6986"/>
<path d="M336 684L324 696L336 684Z" stroke="#0D6986"/>
<path d="M385 30C385 31.3261 385.527 32.5979 386.464 33.5355C387.402 34.4732 388.674 35 390 35C391.326 35 392.598 34.4732 393.536 33.5355C394.473 32.5979 395 31.3261 395 30C395 28.6739 394.473 27.4021 393.536 26.4645C392.598 25.5268 391.326 25 390 25C388.674 25 387.402 25.5268 386.464 26.4645C385.527 27.4021 385 28.6739 385 30V30Z" stroke="#0D6986"/>
<path d="M396 84L384 96L396 84Z" stroke="#0D6986"/>
<path d="M387 150C387 150.796 387.316 151.559 387.879 152.121C388.441 152.684 389.204 153 390 153C390.796 153 391.559 152.684 392.121 152.121C392.684 151.559 393 150.796 393 150C393 149.204 392.684 148.441 392.121 147.879C391.559 147.316 390.796 147 390 147C389.204 147 388.441 147.316 387.879 147.879C387.316 148.441 387 149.204 387 150V150Z" stroke="#0D6986"/>
<path d="M392 208L388 212L392 208Z" stroke="#0D6986"/>
<path d="M396 264L384 276L396 264Z" stroke="#0D6986"/>
<path d="M420 300L360 360L420 300Z" stroke="#0D6986" stroke-width="3"/>
<path d="M396 384L384 396L396 384Z" stroke="#0D6986"/>
<path d="M392 448L388 452L392 448Z" stroke="#0D6986"/>
<path d="M396 504L384 516L396 504Z" stroke="#0D6986"/>
<path d="M396 564L384 576L396 564Z" stroke="#0D6986"/>
<path d="M385 630C385 631.326 385.527 632.598 386.464 633.536C387.402 634.473 388.674 635 390 635C391.326 635 392.598 634.473 393.536 633.536C394.473 632.598 395 631.326 395 630C395 628.674 394.473 627.402 393.536 626.464C392.598 625.527 391.326 625 390 625C388.674 625 387.402 625.527 386.464 626.464C385.527 627.402 385 628.674 385 630V630Z" stroke="#0D6986"/>
<path d="M392 688L388 692L392 688Z" stroke="#0D6986"/>
<path d="M27 750C27 750.796 27.3161 751.559 27.8787 752.121C28.4413 752.684 29.2044 753 30 753C30.7956 753 31.5587 752.684 32.1213 752.121C32.6839 751.559 33 750.796 33 750C33 749.204 32.6839 748.441 32.1213 747.879C31.5587 747.316 30.7956 747 30 747C29.2044 747 28.4413 747.316 27.8787 747.879C27.3161 748.441 27 749.204 27 750V750Z" stroke="#0D6986"/>
<path d="M29 810C29 810.265 29.1054 810.52 29.2929 810.707C29.4804 810.895 29.7348 811 30 811C30.2652 811 30.5196 810.895 30.7071 810.707C30.8946 810.52 31 810.265 31 810C31 809.735 30.8946 809.48 30.7071 809.293C30.5196 809.105 30.2652 809 30 809C29.7348 809 29.4804 809.105 29.2929 809.293C29.1054 809.48 29 809.735 29 810V810Z" stroke="#0D6986"/>
<path d="M36 864L24 876L36 864Z" stroke="#0D6986"/>
<path d="M36 924L24 936L36 924Z" stroke="#0D6986"/>
<path d="M92 748L88 752L92 748Z" stroke="#0D6986"/>
<path d="M96 804L84 816L96 804Z" stroke="#0D6986"/>
<path d="M120 840L60 900L120 840Z" stroke="#0D6986" stroke-width="3"/>
<path d="M96 924L84 936L96 924Z" stroke="#0D6986"/>
<path d="M147 750C147 750.796 147.316 751.559 147.879 752.121C148.441 752.684 149.204 753 150 753C150.796 753 151.559 752.684 152.121 752.121C152.684 751.559 153 750.796 153 750C153 749.204 152.684 748.441 152.121 747.879C151.559 747.316 150.796 747 150 747C149.204 747 148.441 747.316 147.879 747.879C147.316 748.441 147 749.204 147 750V750Z" stroke="#0D6986"/>
<path d="M149 810C149 810.265 149.105 810.52 149.293 810.707C149.48 810.895 149.735 811 150 811C150.265 811 150.52 810.895 150.707 810.707C150.895 810.52 151 810.265 151 810C151 809.735 150.895 809.48 150.707 809.293C150.52 809.105 150.265 809 150 809C149.735 809 149.48 809.105 149.293 809.293C149.105 809.48 149 809.735 149 810V810Z" stroke="#0D6986"/>
<path d="M156 864L144 876L156 864Z" stroke="#0D6986"/>
<path d="M149 930C149 930.265 149.105 930.52 149.293 930.707C149.48 930.895 149.735 931 150 931C150.265 931 150.52 930.895 150.707 930.707C150.895 930.52 151 930.265 151 930C151 929.735 150.895 929.48 150.707 929.293C150.52 929.105 150.265 929 150 929C149.735 929 149.48 929.105 149.293 929.293C149.105 929.48 149 929.735 149 930V930Z" stroke="#0D6986"/>
<path d="M207 750C207 750.796 207.316 751.559 207.879 752.121C208.441 752.684 209.204 753 210 753C210.796 753 211.559 752.684 212.121 752.121C212.684 751.559 213 750.796 213 750C213 749.204 212.684 748.441 212.121 747.879C211.559 747.316 210.796 747 210 747C209.204 747 208.441 747.316 207.879 747.879C207.316 748.441 207 749.204 207 750V750Z" stroke="#0D6986"/>
<path d="M207 810C207 810.796 207.316 811.559 207.879 812.121C208.441 812.684 209.204 813 210 813C210.796 813 211.559 812.684 212.121 812.121C212.684 811.559 213 810.796 213 810C213 809.204 212.684 808.441 212.121 807.879C211.559 807.316 210.796 807 210 807C209.204 807 208.441 807.316 207.879 807.879C207.316 808.441 207 809.204 207 810V810Z" stroke="#0D6986"/>
<path d="M216 864L204 876L216 864Z" stroke="#0D6986"/>
<path d="M205 930C205 931.326 205.527 932.598 206.464 933.536C207.402 934.473 208.674 935 210 935C211.326 935 212.598 934.473 213.536 933.536C214.473 932.598 215 931.326 215 930C215 928.674 214.473 927.402 213.536 926.464C212.598 925.527 211.326 925 210 925C208.674 925 207.402 925.527 206.464 926.464C205.527 927.402 205 928.674 205 930V930Z" stroke="#0D6986"/>
<path d="M265 750C265 751.326 265.527 752.598 266.464 753.536C267.402 754.473 268.674 755 270 755C271.326 755 272.598 754.473 273.536 753.536C274.473 752.598 275 751.326 275 750C275 748.674 274.473 747.402 273.536 746.464C272.598 745.527 271.326 745 270 745C268.674 745 267.402 745.527 266.464 746.464C265.527 747.402 265 748.674 265 750V750Z" stroke="#0D6986"/>
<path d="M276 804L264 816L276 804Z" stroke="#0D6986"/>
<path d="M265 870C265 871.326 265.527 872.598 266.464 873.536C267.402 874.473 268.674 875 270 875C271.326 875 272.598 874.473 273.536 873.536C274.473 872.598 275 871.326 275 870C275 868.674 274.473 867.402 273.536 866.464C272.598 865.527 271.326 865 270 865C268.674 865 267.402 865.527 266.464 866.464C265.527 867.402 265 868.674 265 870V870Z" stroke="#0D6986"/>
<path d="M269 930C269 930.265 269.105 930.52 269.293 930.707C269.48 930.895 269.735 931 270 931C270.265 931 270.52 930.895 270.707 930.707C270.895 930.52 271 930.265 271 930C271 929.735 270.895 929.48 270.707 929.293C270.52 929.105 270.265 929 270 929C269.735 929 269.48 929.105 269.293 929.293C269.105 929.48 269 929.735 269 930V930Z" stroke="#0D6986"/>
<path d="M332 748L328 752L332 748Z" stroke="#0D6986"/>
<path d="M360 780L300 840L360 780Z" stroke="#0D6986" stroke-width="3"/>
<path d="M325 870C325 871.326 325.527 872.598 326.464 873.536C327.402 874.473 328.674 875 330 875C331.326 875 332.598 874.473 333.536 873.536C334.473 872.598 335 871.326 335 870C335 868.674 334.473 867.402 333.536 866.464C332.598 865.527 331.326 865 330 865C328.674 865 327.402 865.527 326.464 866.464C325.527 867.402 325 868.674 325 870V870Z" stroke="#0D6986"/>
<path d="M360 900L300 960L360 900Z" stroke="#0D6986" stroke-width="3"/>
<path d="M385 750C385 751.326 385.527 752.598 386.464 753.536C387.402 754.473 388.674 755 390 755C391.326 755 392.598 754.473 393.536 753.536C394.473 752.598 395 751.326 395 750C395 748.674 394.473 747.402 393.536 746.464C392.598 745.527 391.326 745 390 745C388.674 745 387.402 745.527 386.464 746.464C385.527 747.402 385 748.674 385 750V750Z" stroke="#0D6986"/>
<path d="M396 804L384 816L396 804Z" stroke="#0D6986"/>
<path d="M387 870C387 870.796 387.316 871.559 387.879 872.121C388.441 872.684 389.204 873 390 873C390.796 873 391.559 872.684 392.121 872.121C392.684 871.559 393 870.796 393 870C393 869.204 392.684 868.441 392.121 867.879C391.559 867.316 390.796 867 390 867C389.204 867 388.441 867.316 387.879 867.879C387.316 868.441 387 869.204 387 870V870Z" stroke="#0D6986"/>
<path d="M392 928L388 932L392 928Z" stroke="#0D6986"/>
</g>
</svg>
