<svg width="299" height="261" viewBox="0 0 299 261" fill="none" xmlns="http://www.w3.org/2000/svg">
<path d="M219.304 3.17366L204.104 28.0736L195.004 12.9736C194.204 11.2736 191.704 10.4736 189.204 11.2736C187.504 12.9736 186.704 15.4736 188.304 17.0736L199.004 36.3736L188.104 56.2736L165.804 16.0736C164.204 14.4736 161.704 13.5736 160.004 14.3736C157.504 16.0736 156.704 18.5736 158.304 20.2736L183.004 64.5736L165.304 94.4736L149.704 57.6737L133.604 94.2736L116.304 64.0736L141.604 20.0736C142.504 20.1736 142.504 19.2736 142.504 18.4736C142.504 16.7736 141.704 15.0736 140.004 14.2736C138.404 13.4736 135.904 14.2736 134.204 15.8736L111.404 55.7736L100.704 35.6737L111.704 16.5736C112.504 15.7736 112.504 14.8736 112.504 14.0736C112.504 13.2736 111.704 11.5736 110.004 10.7736C108.404 9.87364 105.904 10.6736 105.004 12.3736L95.804 27.2736L80.904 2.17366C80.104 -0.326339 77.604 -0.326352 75.104 0.473648C73.404 1.27365 72.604 3.77364 74.204 6.27364L88.204 31.3736L70.704 31.2736C68.204 31.2736 66.504 33.7736 66.504 35.4736C66.504 37.9736 68.204 39.5736 70.704 39.5736L93.204 39.7736L103.904 59.8736L58.904 59.5736C56.404 59.5736 54.704 61.1737 54.704 63.6737C54.704 65.3737 56.304 67.8736 58.804 67.8736L108.804 68.1737L126.104 98.3736L87.004 93.8736L110.104 125.774L75.104 125.474L50.404 81.9736C48.704 79.4736 46.204 79.4736 44.604 80.2736C42.904 81.0736 42.004 83.5736 42.804 86.0736L65.904 125.474L43.404 125.274L31.904 105.974C31.104 103.474 28.604 102.674 26.104 104.274C24.404 105.174 23.504 107.674 25.204 110.174L33.404 125.174L4.20397 124.974C1.70397 124.974 0.10397 126.674 0.00396952 129.174C-0.0960305 131.674 1.70397 133.274 4.20397 133.374L33.304 133.574L24.904 148.474C23.204 150.974 24.004 153.474 25.704 154.274C28.204 155.974 30.704 155.174 31.504 152.674L43.304 133.574L65.804 133.774L42.204 172.774C41.404 175.274 42.204 177.774 43.904 178.574C46.404 180.274 48.904 179.474 49.704 176.974L75.004 133.774L110.004 134.074L86.504 165.574L125.704 161.674L107.904 191.574L57.904 191.174C55.404 191.174 53.804 193.674 53.804 195.374C53.704 197.874 55.404 199.474 57.904 199.574L103.704 199.874L91.904 219.774L69.404 219.574C66.904 219.574 65.204 221.274 65.204 223.774C65.204 225.374 66.904 227.974 69.404 227.974L86.904 228.074L72.504 252.974C70.804 255.474 71.604 257.974 74.104 258.774C75.804 259.674 78.304 259.674 79.204 257.174L94.304 232.274L103.404 247.374C104.204 249.074 106.704 249.874 108.404 249.074C110.104 248.274 110.904 246.574 110.904 245.774C110.904 244.874 110.904 244.074 110.104 243.274L99.404 223.974L110.404 204.074L132.604 244.274C134.204 245.874 136.704 246.774 138.404 245.974C140.104 245.074 140.904 243.474 140.904 241.774C140.904 240.974 140.904 240.974 140.104 240.074L115.404 195.774L133.104 165.874L148.704 202.674L164.804 166.074L182.104 196.274L156.804 240.274C155.904 241.874 155.904 244.374 158.404 246.074C160.104 246.874 162.604 246.074 164.204 244.474L187.004 204.574L197.704 224.674L186.804 243.774C185.104 245.474 185.904 247.974 188.404 249.574C190.004 250.474 192.504 249.674 194.204 247.974L202.704 233.074L217.504 258.174C218.304 260.674 220.804 260.674 223.304 259.874C224.104 259.074 225.004 257.374 225.004 256.574C225.004 255.674 225.004 254.874 224.204 254.074L210.204 228.974L227.704 229.074C230.204 229.074 231.904 226.574 231.904 224.874C231.904 222.374 230.204 220.774 227.704 220.774L205.204 220.574L194.604 200.474L239.604 200.774C242.104 200.774 243.704 199.174 243.704 196.674C243.704 194.174 242.104 192.474 239.604 192.474L189.604 192.174L172.304 161.974L211.504 166.474L188.304 134.574L223.304 134.874L248.004 178.374C249.704 180.874 252.204 180.874 253.904 180.074C255.504 179.274 256.404 176.774 255.604 174.274L233.304 134.974L255.004 135.074L266.504 154.374C267.404 156.874 269.904 157.674 272.404 156.074C274.004 155.174 274.904 152.674 274.104 150.174L265.004 135.174L294.204 135.374C296.704 135.374 298.404 133.674 298.404 131.174C298.404 128.674 296.704 127.074 294.204 126.974L265.104 126.774L273.504 111.874C274.304 111.074 274.404 110.174 274.404 109.374C274.404 107.674 273.504 106.874 272.704 106.074C270.204 104.374 267.704 105.174 266.904 107.674L255.104 126.774L232.604 126.574L256.204 87.5736C256.204 86.7736 256.204 85.8736 256.204 85.0736C256.204 83.3736 255.404 82.5736 254.504 81.7736C252.104 80.0736 249.604 80.8736 248.704 83.3736L223.404 126.574L188.404 126.274L212.004 94.7736L172.804 98.6737L190.504 68.7736L240.504 69.1737C243.004 69.1737 244.704 66.6736 244.704 64.9736C244.704 62.4736 243.004 60.8736 240.504 60.7736L195.504 60.4736L206.504 40.5736L229.004 40.7736C231.504 40.7736 233.204 39.0736 233.204 36.5736C233.204 34.0736 231.604 32.3736 229.104 32.3736L211.604 32.2736L225.904 7.37361C226.704 6.57361 226.704 5.67361 226.804 4.87361C226.804 4.07361 225.904 2.37362 224.304 1.57362C222.604 0.673624 220.104 0.673661 219.304 3.17366ZM194.404 104.674L175.004 130.374L194.004 156.274L161.604 152.774L148.804 181.874L135.704 152.574L104.004 155.674L123.404 129.974L104.404 104.074L136.004 107.574L149.604 78.4736L161.904 107.774L194.404 104.674Z" fill="#F4F6E0"/>
</svg>
